# xmcd CD database file
# Copyright (C) 1995-1998 Ti Kan
#
# Track frame offsets:
#	150
#	16105
#	22796
#	26997
#	31985
#	40110
#	45573
#	51428
#	63429
#	77273
#	86993
#	95225
#	107732
#	121876
#	132723
#	138682
#	153019
#	163478
#	172763
#	178344
#	189225
#	199225
#	204066
#	209147
#	215526
#	222962
#	229518
#	240525
#	252509
#	266085
#	278730
#	294718
#	304059
#
# Disc length: 4137 seconds
#
# Revision: 1
# Processed by: cddbd v1.4PL0 Copyright (c) Steve Scherf et al.
# Submitted via: CDex 1.30
#
DISCID=e7102721
DTITLE=Canto da Terra - Ao Vivo
DYEAR=2001
DGENRE=Country
TTITLE0=Viajando na vaneira
TTITLE1=De baile em baile
TTITLE2=Sarandeio
TTITLE3=Vaneira do Canto
TTITLE4=O Gira mundo
TTITLE5=No me niegues tu amor
TTITLE6=El mencho cirilo
TTITLE7=Merceditas
TTITLE8=O garrafão
TTITLE9=Chamada a cobrar
TTITLE10=Vai que vai
TTITLE11=De corpo alma e coração
TTITLE12=Quem disse que esqueci
TTITLE13=Festança nos medeiros
TTITLE14=Vanerão do nego Nereu
TTITLE15=Chimango
TTITLE16=Coró cócó
TTITLE17=Amigo Desgarrado
TTITLE18=Uma noite sem você
TTITLE19=Magoado contigo
TTITLE20=Guia Lopes de Laguna
TTITLE21=Bailanta da Vida
TTITLE22=No sapateio
TTITLE23=Limpa Banco
TTITLE24=Espinhos da vida
TTITLE25=Prazer de fazendeiro
TTITLE26=Peão folgado
TTITLE27=Trancaço de galpão
TTITLE28=Não encosta a barriguinha
TTITLE29=Tudo por amor
TTITLE30=Não faz assim comigo
TTITLE31=Hoje a corbra vai fumar
TTITLE32=Tchau amor
EXTD=\nYEAR: 2001  ID3G:   2
EXTT0=
EXTT1=
EXTT2=
EXTT3=
EXTT4=
EXTT5=
EXTT6=
EXTT7=
EXTT8=
EXTT9=
EXTT10=
EXTT11=
EXTT12=
EXTT13=
EXTT14=
EXTT15=
EXTT16=
EXTT17=
EXTT18=
EXTT19=
EXTT20=
EXTT21=
EXTT22=
EXTT23=
EXTT24=
EXTT25=
EXTT26=
EXTT27=
EXTT28=
EXTT29=
EXTT30=
EXTT31=
EXTT32=
PLAYORDER=
